# xmcd
#
# Track frame offsets: 
#        150
#        16509
#        28963
#        43822
#        55589
#        64967
#        76752
#        86668
#        99672
#        111903
#        125706
#        136329
#        148302
#        158814
#        173141
#        184108
#        196710
#        208446
#        221189
#        230746
#
# Disc length: 3254 seconds
#
# Revision: 0
# Processed by: cddbd v1.5.2PL0 Copyright (c) Steve Scherf et al.
# Submitted via: ExactAudioCopy v1.0b4
#
DISCID=2a0cb414
DTITLE=Various Artist - CD 3
DYEAR=2013
DGENRE=Soul
TTITLE0=Johnny Mathis - Misty
TTITLE1=Sam Cooke - It's all right
TTITLE2=Aretha Franklin - Maybe I'm a fool
TTITLE3=Ben E. King - Come closer to me
TTITLE4=Jackie Wilson - You better know it
TTITLE5=James Brown - Baby cries over the ocean
TTITLE6=The Drifters - There goes my baby
TTITLE7=Ray Charles - Let the good times roll
TTITLE8=The Coasters - Poison ivy
TTITLE9=The Supremes - Never again
TTITLE10=Johnny Mathis - No love (but your love)
TTITLE11=Sam Cooke - Nothing can change this love
TTITLE12=Aretha Franklin - You made me love you
TTITLE13=Ben E. King - Frenesi
TTITLE14=Marvin Gaye - Witchcraft
TTITLE15=James Brown - I don't know
TTITLE16=Nappy Brown - Little by little
TTITLE17=Mary Wells - I don't want to take a chance
TTITLE18=Gladys Knight and The Pips - Every beat of my heart
TTITLE19=The Supremes - Buttered popcorn
EXTD=
EXTT0=
EXTT1=
EXTT2=
EXTT3=
EXTT4=
EXTT5=
EXTT6=
EXTT7=
EXTT8=
EXTT9=
EXTT10=
EXTT11=
EXTT12=
EXTT13=
EXTT14=
EXTT15=
EXTT16=
EXTT17=
EXTT18=
EXTT19=
PLAYORDER=
